# xmcd CD database file
#
# Track frame offsets:
#	150
#	10738
#	23420
#	33923
#	45967
#	57364
#	70393
#	82952
#	94686
#	106204
#	116779
#	129212
#
# Disc length: 1891 seconds
#
# Revision: 0
# Processed by: cddbd v1.5.2PL0 Copyright (c) Steve Scherf et al.
# Submitted via: CDex 1.70beta2
#
DISCID=8607610c
DTITLE=Various Artist - A Country Dozen
DYEAR=2006
DGENRE=Country
TTITLE0=Ferlin Husky - Wings Of A Dove
TTITLE1=Bobby Bare - 500 Miles Away From Home
TTITLE2=Dave Dudley - Six Days On The Road
TTITLE3=Tammy Wynette - Stand By Your Man
TTITLE4=Jim Reeves - Am I Losing You
TTITLE5=Bill Anderson - Still
TTITLE6=Jack Scott - What In The World Came Over You
TTITLE7=Brenda Lee - (That's) All You Gotta Do
TTITLE8=Charley Pride - It's Gonna Take A Little Bit Longer
TTITLE9=Skeeter Davis - My Last Date (With You)
TTITLE10=Johnny Cash - Sixteen Tons
TTITLE11=Slim Whitman - Tenessee Waltz
EXTD=YEAR: 2006
EXTT0=
EXTT1=
EXTT2=
EXTT3=
EXTT4=
EXTT5=
EXTT6=
EXTT7=
EXTT8=
EXTT9=
EXTT10=
EXTT11=
PLAYORDER=
